PathFileType	4	(X/Y/Z)	T1_P1_NoVision_NoMovement_0_0-649.trc
DataRate	CameraRate	NumFrames	NumMarkers	Units	OrigDataRate	OrigDataStartFrame	OrigNumFrames
60	60	4	27	m	60	162	649
Frame#	Time	RHip			RKnee			RAnkle			RBigToe			RSmallToe			RHeel			LHip			LKnee			LAnkle			LBigToe			LSmallToe			LHeel			Neck			Head			Nose			RShoulder			RElbow			RWrist			RThumb			RIndex			RPinky			LShoulder			LElbow			LWrist			LThumb			LIndex			LPinky		
		X1	Y1	Z1	X2	Y2	Z2	X3	Y3	Z3	X4	Y4	Z4	X5	Y5	Z5	X6	Y6	Z6	X7	Y7	Z7	X8	Y8	Z8	X9	Y9	Z9	X10	Y10	Z10	X11	Y11	Z11	X12	Y12	Z12	X13	Y13	Z13	X14	Y14	Z14	X15	Y15	Z15	X16	Y16	Z16	X17	Y17	Z17	X18	Y18	Z18	X19	Y19	Z19	X20	Y20	Z20	X21	Y21	Z21	X22	Y22	Z22	X23	Y23	Z23	X24	Y24	Z24	X25	Y25	Z25	X26	Y26	Z26	X27	Y27	Z27
163	2.716666666666667	-72.76810718932316	3833.2272447788723	-523.1698834276222	297.9914638181755	3978.1424288938147	-520.4760371054177	639.1499414715156	4148.2375781137835	-531.6468978852665	731.0312475414179	4041.7098775974296	-515.2792230065434	738.2504142333294	4078.539660429291	-611.0108333884648	663.6902564737961	4175.239329728134	-517.7038546429067	-109.29187326262681	3907.120658328071	-339.892671550967	260.2831426185532	4025.6805534480613	-335.7311447970715	603.7107009392518	4253.016428525625	-358.7577944871799	680.4107410701498	4136.236446364621	-238.03861872013334	655.2028144744434	4218.206642989661	-223.26174893091655	637.4218107079703	4297.916969419144	-387.38767343476314	-627.6585511564602	3676.3037454322052	-450.88572028897573	-870.7860454298443	3464.5537846198804	-350.3227226629083	-688.0466538011549	3480.503833871584	-300.0628446084273	-556.7063707862027	3608.5159741149414	-563.1384591745631	-289.75837213719205	3738.0972710762153	-672.93882239915	-32.527525783333644	3693.8229367110757	-582.6812237973553	81.57596790018243	3756.39827313504	-538.5276408634357	102.24460630451868	3757.224206171536	-547.9814244715909	93.76806627649559	3787.597310712591	-591.3585456767466	-615.8655707728745	3823.4824015779377	-342.7636476700711	-379.56555635372257	3944.0529052144684	-275.5136907026611	-138.03880010574974	3935.790769491312	-196.17476553259502	-18.53186111516742	3965.030545403134	-213.51608070882207	9.747543231454578	3987.9783430669354	-202.324750018264	-15.0572983743585	3979.76892278225	-181.65862146829355
164	2.7333333333333334	-72.97845559034246	3833.193432664269	-523.1663375140986	298.03619117897637	3978.6097829732475	-522.407539617185	639.3762894482693	4150.766182694353	-533.146091346754	733.2085788578536	4045.3344802501515	-515.1109822983026	738.7328469252806	4079.0254459680546	-611.32137510335	663.6903031256968	4175.497774971253	-517.9126083346939	-108.504621965472	3907.756504034121	-340.13659253527794	258.7538078057016	4024.9416303218477	-335.88418849041375	603.5833385741225	4251.846904649976	-358.5834106988047	678.5212938429885	4137.312158140961	-237.66603932189423	653.1800440481333	4219.765012334633	-223.9148995874947	636.6648103556021	4296.537481100365	-387.1042898986416	-627.6604989146134	3676.2512114168403	-450.8642080220091	-870.7635586363964	3464.2728430369953	-349.18361733172264	-688.1154870929583	3480.487010386916	-298.6027346449536	-556.7124054130704	3608.4712653338843	-563.1202131866509	-289.7809384055478	3741.041022252857	-676.806895196798	-32.51051452337082	3693.6856337148356	-582.6607396953182	78.45021364756684	3755.039989147548	-538.391447630026	102.27967024311403	3764.192856217623	-549.8371439934701	93.69321833480116	3787.3979176645335	-591.2185839671507	-615.8480227388055	3823.4142468063715	-342.7384371877515	-380.18111525393334	3944.321088220988	-275.9931303419214	-138.22784891143192	3944.890219856523	-197.58297409336035	-18.433774072265617	3965.1711107138262	-213.53999989327036	10.096225914095218	3988.330197827875	-202.4180948993953	-13.375607469596314	3980.518357227085	-182.0596434462155
165	2.75	-72.90481325357376	3833.3326653069416	-523.2445296162778	297.6248591791038	3978.7077902618284	-523.8299057693174	638.747057496445	4151.892521118063	-534.0769307216206	734.6269747823864	4051.9919578435342	-517.9118798307273	738.6175845740468	4078.9011027195393	-611.4256077984559	663.5792993626668	4175.553100631196	-518.0059042347618	-108.11635886028914	3908.094602020105	-340.2581060247351	256.7215146774274	4023.9399647817845	-336.10570825706594	603.5147561419593	4251.688626757842	-358.5604856440556	678.2750504691244	4143.6776431271	-239.61310267629418	653.0247634070062	4224.310304765186	-224.86062423577033	634.758356164004	4291.99660924511	-386.0319897916598	-627.6581825824678	3676.185393766996	-450.83788302280755	-870.7254531730235	3463.9744714485887	-348.14673484718713	-688.1489946479255	3480.393383984518	-296.7182324892217	-556.7143995974377	3608.4300115342235	-563.1112424612946	-289.689291419383	3743.1328483590255	-680.5207294111499	-32.46996560081498	3696.7098697995893	-583.4175959792871	75.9096319161158	3753.9736803793126	-538.2924366888935	102.6055509273593	3771.418369793628	-553.7434608767855	93.6626069478881	3787.249932256447	-591.1359791198728	-615.8117420275315	3823.292572577703	-342.6859429001829	-379.4907593821082	3945.1966939890704	-276.4908207263589	-137.98159682746797	3952.0430821738987	-198.7442757038463	-17.96325595778074	3965.664996678787	-213.69650454552573	10.88770295420952	3989.0003489554692	-202.62546220526934	-12.024241557354586	3981.724779823435	-182.5099797446943
166	2.7666666666666666	-72.57008684969202	3833.567994784354	-523.3631705705496	296.76630471798023	3978.240292195118	-523.7193335549389	637.5860200830118	4149.783005104959	-533.7227662569373	735.8567745316634	4061.1669944629075	-523.4386285796302	738.3951637860878	4078.2950085942066	-611.1549553582709	663.4746133327465	4175.467529871045	-517.9922333620053	-108.5946335248492	3907.747475874424	-340.1040296867714	255.30580441008	4023.214574634269	-336.2787448746203	603.5374419584454	4252.61677476034	-358.7008898467217	679.6060094318135	4150.190078523821	-242.4994051358859	654.4631365397845	4229.014236292154	-225.59224757516375	632.7914539151978	4286.587120430453	-384.72070959227887	-627.6522644253517	3676.137025018843	-450.81736319048264	-870.6740746843664	3463.8194515135337	-347.61123314019807	-688.0574837426192	3480.151320306252	-295.43274817692225	-556.7134189202669	3608.407926903372	-563.1159807883415	-289.5488468922489	3743.8500711066586	-682.5860422266752	-32.44840692790359	3701.3493545173037	-584.5701992451151	75.48124950503322	3753.9609363660916	-538.4423099622717	102.97321227325298	3776.238578758649	-557.3218893455836	93.67762414767945	3787.1597670009037	-591.0851802866277	-615.7870107404693	3823.1819952426335	-342.6361753209543	-377.5233222627907	3946.3448081606134	-276.7314540651722	-137.32716406988018	3955.2645814825755	-199.36233651007038	-17.208140965080787	3966.4444387347344	-213.96933219309807	11.506050856206706	3989.4924700343	-202.75130649877173	-11.401194131676874	3985.1991404238033	-183.2277574554588
